/* XPM */
static char *item[] = {
/* columns rows colors chars-per-pixel */
"64 64 239 2 ",
"   c None",
".  c #090603",
"X  c #0C0905",
"o  c #050609",
"O  c #0C070E",
"+  c #07090C",
"@  c #0A0A0D",
"#  c #140C07",
"$  c #120B0E",
"%  c #181209",
"&  c #0B0D13",
"*  c #0C0F18",
"=  c #150D13",
"-  c #1A0E14",
";  c #190F19",
":  c #0E1016",
">  c #0E1119",
",  c #141116",
"<  c #1C1115",
"1  c #1C1917",
"2  c #12141B",
"3  c #1C121A",
"4  c #16191D",
"5  c #23190C",
"6  c #270F11",
"7  c #231315",
"8  c #2B1416",
"9  c #291916",
"0  c #24141A",
"q  c #2A161A",
"w  c #2D191B",
"e  c #351717",
"r  c #321916",
"t  c #331B1D",
"y  c #3B1E1D",
"u  c #29200E",
"i  c #30230E",
"p  c #2B2213",
"a  c #372A12",
"s  c #3E221C",
"d  c #3D331B",
"f  c #131621",
"g  c #161A24",
"h  c #1A1D24",
"j  c #1A1E29",
"k  c #251D23",
"l  c #341C20",
"z  c #3A1E21",
"x  c #1D2125",
"c  c #1D222C",
"v  c #1F2430",
"b  c #1F2934",
"n  c #222226",
"m  c #22252C",
"M  c #29272C",
"N  c #25292D",
"B  c #292B2D",
"V  c #3C2122",
"C  c #302D2C",
"Z  c #2B302F",
"A  c #212631",
"S  c #242A34",
"D  c #2A2D35",
"F  c #262D39",
"G  c #292F39",
"H  c #322E32",
"J  c #2D3134",
"K  c #27323C",
"L  c #2C333C",
"P  c #303335",
"I  c #31353C",
"U  c #34393F",
"Y  c #393C3C",
"T  c #4C1912",
"R  c #431D1B",
"E  c #721E17",
"W  c #45220E",
"Q  c #42221D",
"!  c #49251E",
"~  c #472A18",
"^  c #57281C",
"/  c #483516",
"(  c #583817",
")  c #65271A",
"_  c #74291B",
"`  c #663919",
"'  c #442322",
"]  c #4A2522",
"[  c #472A23",
"{  c #4E2924",
"}  c #512722",
"|  c #542B24",
" . c #5B2D25",
".. c #572F28",
"X. c #543124",
"o. c #5C3125",
"O. c #5D3329",
"+. c #473C31",
"@. c #612F26",
"#. c #633226",
"$. c #6A3526",
"%. c #643429",
"&. c #6A3629",
"*. c #663929",
"=. c #6C3B2C",
"-. c #753222",
";. c #723B2B",
":. c #7A3E2C",
">. c #56411E",
",. c #6A491B",
"<. c #4E462D",
"1. c #684828",
"2. c #76452A",
"3. c #7C422D",
"4. c #6B572A",
"5. c #755929",
"6. c #7B4230",
"7. c #6E5B33",
"8. c #7A6737",
"9. c #273542",
"0. c #2E3641",
"q. c #2F3942",
"w. c #313740",
"e. c #343B44",
"r. c #393D43",
"t. c #343E48",
"y. c #3B3F48",
"u. c #374047",
"i. c #3B4247",
"p. c #36414A",
"a. c #3B444B",
"s. c #3E484E",
"d. c #3E4851",
"f. c #42464B",
"g. c #454748",
"h. c #43494E",
"j. c #51514E",
"k. c #434D53",
"l. c #4A4E51",
"z. c #434F58",
"x. c #465155",
"c. c #4B5254",
"v. c #4F5855",
"b. c #46525A",
"n. c #4B545B",
"m. c #4D595D",
"M. c #515152",
"N. c #525A5D",
"B. c #5D6056",
"V. c #4B5A62",
"C. c #535D62",
"Z. c #566265",
"A. c #5A6364",
"S. c #586866",
"D. c #55636A",
"F. c #5B6669",
"G. c #5D696D",
"H. c #666D65",
"J. c #616B6D",
"K. c #66716F",
"L. c #626E72",
"P. c #637173",
"I. c #697374",
"U. c #6B7A7A",
"Y. c #727E7C",
"T. c #95311C",
"R. c #8F3C25",
"E. c #92561C",
"W. c #A55B1A",
"Q. c #9C671D",
"!. c #AD671D",
"~. c #B66C1D",
"^. c #86462B",
"/. c #924827",
"(. c #88522E",
"). c #844731",
"_. c #844A33",
"`. c #8C4C33",
"'. c #944D33",
"]. c #8D5634",
"[. c #945235",
"{. c #9B5536",
"}. c #9B5837",
"|. c #AE5128",
" X c #A45B38",
".X c #917029",
"XX c #966A35",
"oX c #987737",
"OX c #A76A25",
"+X c #A67726",
"@X c #AF732F",
"#X c #BA7825",
"$X c #AE623B",
"%X c #B3663D",
"&X c #CB7D1F",
"*X c #C37926",
"=X c #CD6F37",
"-X c #927548",
";X c #AA6953",
":X c #76817F",
">X c #AC8536",
",X c #B88730",
"<X c #C7862D",
"1X c #D18A2A",
"2X c #C98A33",
"3X c #D49033",
"4X c #D79735",
"5X c #E19E39",
"6X c #DCA53B",
"7X c #9A8848",
"8X c #9B8B50",
"9X c #B58A50",
"0X c #8A8476",
"qX c #C7954F",
"wX c #E2944A",
"eX c #D4AE4E",
"rX c #E4AE4C",
"tX c #E2B956",
"yX c #D3B06E",
"uX c #E9BB68",
"iX c #EFC776",
"pX c #758585",
"aX c #788887",
"sX c #7B8C8B",
"dX c #7F9492",
"fX c #828E8C",
"gX c #869894",
"hX c #8FA39D",
"jX c #B7A689",
"kX c #97AAA4",
"lX c #9DB4AB",
"zX c #A3B9AF",
"xX c #A8BFB6",
"cX c #D6B387",
"vX c #ABC6BB",
"bX c #F9DA8A",
"nX c #F7DE94",
"mX c #BACFC6",
"MX c #C3D6C8",
/* pixels */
"o                                                                           5.>.                                                ",
"                                                                            / a                                     i 5         ",
"                    / 1.                                                                                          ( yXqXi       ",
"                    >..X.                                                                                         5.bXuX/       ",
"                    . X                                                                       # i X               u oX5.#       ",
"                                    / i                                                     # -XuX4.                .           ",
"                                % p p %                                                     u yXnXoX                            ",
"      X 5                     . oXqX%                                                       X 1.@Xa             % d .           ",
"      1.qXi                     5.XX#                                                           .               u 7..           ",
"      5 1.%                     . X                                                                                             ",
"            @ & * * & : +               . d #             + & & & & & & &           % d                   o & : & & & &         ",
"          >.-XL c b q.e.2 @     o       @ 4.1           4 p.0.K K K 0.0.e.N         u 4..               o > F d.F A <.-Xn       ",
"        . -X-Xa.q.K Z.w.2 , - - 7 w w w w 9 w q 9 9 7 < i.L.p.e.q.t.t.t.b.m.= 7 9 9 q 7 7 7 7 w w 9 7 < < , c G.a.K g.-XN.2   ~ ",
"        N K.m.m.n.D.I.c 4 y  .%.;.`.[.{.[.`.`.[.{.[.`.} f.pXm.t.pXkXk.d.G.S.Q 6._.`.`.`.).].[.`.`.6.=.} ' 0 f m.P.k.V.C.U.a.. >.",
"        v.kXsXaXaXkXY.2 0 y | ;.).`. X$X$X%X{.`.`.`.3.Q g.hXY.d.P.pXa.n.aXU.[ _.[.{.}. X{.[.[.`.).3.;.&.o.V = k.kXsXdXgXgXsXo   ",
"        B.MXlXpXzXmXL., s o.;.3.{.{.{.{. X%X%X$X$X$X}.&.j.zXkXpXp.9.C.gXlXfX[ `.{.[.}.%X X{.{.[.[.[.'.`.;.] - i.mXmXsXfXmXgX&   ",
"      4 gXfXpXsXS.kXe.= w }  .#.3.`.`.'. X X`.`.)._.6...M.MXvXxXkXkXxXvXMXgXt #.%.#.3.^.3.3.3.;.=...' y t 7 $ m kXpXL.:XY.lXa.  ",
"      x gXx.k.G.s.sXx O = 7 7 9 y Q Q Q Q ! oX2.7 7 7 < f.xXhXdXdXdXgXgXvXgX< < 7 9 r t ~ XX2.*.o.o.X.X.Q 9 - : Y.S.k.b.p.gXv.  ",
".     Y gXL.e.S C.pXm 0 ] %.3.3.2.3._.[.[.[.9X5.s s Q r g.fXD.V.I B z.D.pXaX[ 2._._.].].}.oX_.3.:.=.o.o.} ] t 4 I.Y.K K G.fXP.@ ",
"(     H.aXS.C.x.C.Z.x 9 ] #.&.;.:.^.^.^.^.^.:.^._.`.).%.Y Z.b.+.-XqX+.k.Z.A.y =.`.:.:.3.;.;.;.;.;.#. .y y z w , b.Z.V.V.D.P.gX4 ",
",.    A.G.x.p.a.x.m.h 0 V { |  .#. .} $.=.$.*.&.#.$.#.y P n.w.(.iXnX@X+.x.k.0 ] 1. .#.;.&.|  .o.#. .{ { { ] w = s.k.a.p.z.V.sX1 ",
"X   . c.x.w.U.J.L s.h < t Q ! {  . . . . .#.(.`.#.o.} 9 D k.N |.yXvX=X{ w.e.9  .%.;.;.;.%.=.;.;.;.=.{ ] y t < @ p.w.b.sXd.x.8X/ ",
"      x.k.G Z.m.A s.h 7 t ' { } } | | }  . .#.=.$.%. .t B p.N R.;XjX|.! L e.0 Q ] ] ] ] ] ] ] ] ' ] } } ] y 0 & r.L d.L.r.r.B.5 ",
"      a.s.G c c S a.4 - t ] } | | { ] y t y y y y y w = m L m R.=XwXT.t F r.0 y Q ' ' ] ] | } } } | ..} V q 3 & r.L A v v L s.& ",
"      e.w.S S c S p.h $ 7 q w t w w w q q y R y y y t < S L m 9 R.|.R h S p.k y y y s ' y t w w w w w w 0 ; = 2 p.L G F F v p.: ",
"    o e.L c c v c S r.N n n n B B D P P H B M B M N B r.a.m m h r R h c A r.r.n n M B B B B B B D B M n n h x i.r.G G S v v p.: ",
"    o w.S j h c c c L k.n.m.Z.J.P.I.Y.Y.U.Y.U.A.A.m.m.k.G m c j 4 2 j c c A w.k.C.Z.F.S.G.J.I.I.J.G.G.C.m.b.b.p.S S A v c c u.: ",
"    o L G c C.J.c j c S S S S S L J.:Xa.s.a.L c j c c c c h 4 2 , 2 , 2 4 g c c c c v v S L w.m.L.L G G K K S A v c k.pXS c r.& ",
"    o S S c I.L.g g c S S S L k.r.I.:XI I L F c c c c j <.8X8X7X7X7X7X7X7X7.x v v v v S L 0.S G.sXL S r.r.L m c c g h.pXU j 0.& ",
"    . J S g S S g c A S S L s.n.L S D m I G A c c c h +.eXrX4X4X5X4X4X3X4XeX8.h c c v L L K m S L m e.w.L A c c c g x S f j L & ",
"    o L S c c A S S S L L i.n.k.w.G N L L L G G K F f 7.6X2X*X4X6X6X6X<X<X1X,X, c A S 0.w.0.K A c e.r.w.S G G S S m h h j S w.& ",
"    o h c 4 h c x c x x h 2 x h c m x x x x m m m c & 4.4X<X2X2.( ~ ( ,X2X1X>X$ 2 h m S N m N c h c x h : h m c x x h h g m S @ ",
"      o 2 h h x m N N B P P P P P J J B B B Z J D N 2 7.2X1X+X#     . ,.6X*X+X$ h B D J J J J P P J B B J J J J N N m m x 4 +   ",
"      o J p.e.r.p.h.n.J.J.F.J.I.I.G.J.J.F.A.N.N.n.k.G 5.<X1XQ..     o / 4X~.+X1 t.n.m.A.J.U.L.J.L.L.F.C.N.n.n.n.k.f.y.e.e.w.+   ",
"      o G G c c c A L w.w.I p.s.i.r.fXN.e.e.G m m c f 4.2X1X+X5 .   . ( 3X~.OX1 v G F 0.p.m.d.aXC.p.p.0.L L A c c c c j c G @   ",
"      o S L c c m S S S L s.h.w.w.L h.i.r.r.w.L S m 2 4.tXtXtX>Xu . 4.qXtXrX>X1 c F 0.p.m.k.e.x.a.r.t.e.e.0.G S c A A c c S +   ",
"      o m I A c A S A m M H C h k k 3 n M M M n h h & 4.6X4XrXoXX   / rX4X4X>X< 2 h m D J D N h m N N N N m c S A S A c S S o   ",
"        + c m c c S h 7 ^ /.^ - $ - - - - - - - = $ O 5.6X&X3X.X    a 3X&X1X+X% O = = = = = - = = - = e ^.) 8 h S A c A S :     ",
"        o m S L A.L h T |.3X^ < ; 0 0 0 0 q q 0 < < = 5.2X~.*X,Xa # .X<X~.#X+X< 3 0 0 q q q 0 0 7 0 0 y #X=X) 4 S n.U c S &     ",
"        o S S w.L.w.h T |.1.t y R y y y Q y t w y w - 5.<XW.W.*X,.5 ,X!.W.!.Q.< q t t t t t w t y y z t ! @X_ h G Z.s.h L &     ",
"          G S c c S m < e R Q R ] ] ] {  .#. .=.6...0 1.#XW.W.~./ % Q.W.W.W.E.7 y { o.#.#. .^ { | ] ] ' y e w k G h h j L &     ",
"          G G c c S S 3 V | ] 7 ] $.&.%.#.$.&.3.;...q ( ~.E.E.#XoXoX#XW.E.OXE.7 } #.$.$.$.].XX#. . .] ' ..' 0 m G A v v L @     ",
"      X o r.L m A A i.h = - = O r Q ! Q e 8 r y y y - 7 E.#X#X#X#X#X#X#X~.OXW $ e Q Q Q y 1.5.! ! Q r = 0 - & w.G F S F e.O     ",
"    p -X1 h.e.m A A s.k t } ! y *.=.2.2.2.XX>X].2.*.! < 9 ` ` ( ( ( ( ` ` ~ - y X.o.X.X.X.%.o. .X.X.X.y V 7 & r.G F F L a.2.2.# ",
"    # ~ X c.s.S A L k.n t |  .#.=.=.=.;.].iXbXqX;.$. .V < = = $ $ $ $ = = - 0 '  .%.X. . . .#.#.o.o...] ] w 3 r.K F G r.h.9XrXW ",
"          c.k.L L p.c.k 0 y {  .&.&.%.&.(.tXiX,X;.$.@.} y q q q q q q 0 q w ' #.;.:.;.;.#.X.o.:.:.=.#.| ] t 3 a.L r.p.d.h.1.2.# ",
"          S C.r.U.S.k.h ; y ] ' | ..&.;.;.(.XX^.;.#. .#. .| | | | | } }  .=.:.^.`.).;.#.^ 9X9X#.#. . ...] t 3 k.x.0Xf.k.e..     ",
"          2 A.w.s.w.h.k w ] } ] { | }  ...{ | #. .;.3.3.3.3.:.:.#.@. . . .#.#.%.;.3.&.} E.iXuX^.} #. .} [ l 3 m.r.g.L x.x       ",
"          4 F.w.S L C.Y 3 q t y y Q { } } } | | #.).3.&.&.&.;.;.&.%.%.%.%.%.%.o.o.;.&.} T.wXwXE Q @.] y t 0 D F.p.A L x.x       ",
"          4 J.w.L r.C.Z.3 l { .. .O.#.&.=.=.;.=.&.&.%. .@.&.&.&.;.;.;.;.=.&.&.%.| { | ! T.wX=XE y ] { { V 3 c.Z.a.r.q.k.h       ",
"    X     2 C.I w.s.C.Z., q V [ #.%.|  .#.%.&.&.#. . . .R y y ' .. .O.O.#.%.%.%.%.%.=.%.) =X|.^ | ' V V l 3 c.G.a.p.q.d.g       ",
"  % 8.%   & k.p.s.n.C.Z.= = - w w q 7 q t y Q Q Q Q Q s 8 7 - - 7 7 7 q q q q w w 8 y s t -.) w q 0 3 < < = c.C.a.p.t.p.2       ",
"  . i X   & N.b.d.k.m.Z., 7 y ..O.o.o.] Q ] ] ..%.=.=.=.*.*.=.=.=.=.=.=.=.=.=.=.*.*.O.X.O.{ { O.O.O.V q 0 3 l.m.p.t.0.r.2       ",
"          . i.Z.a.s.k.m., 0 l z z V [ ] ' ' ' ' ' } | | | } } ........| |  ... .} { ] [ ] ' [ ] [ V l q 0 - k.m.w.w.0.L @       ",
"            P A.p.r.p.x.= 3 y q 0 w l z y y ' ' ] ] z V [ ] ' ' ' ' Q V ' ] ] ' z z V y t l l w w 0 3 w w = f.k.L L r.S         ",
"            P C.r.L e.k.= y '.} w l ' ' V z w w l l l l V V ' ' V V z V V V z V V V V V y w w l l q y /.R.3 i.s.G L t.S         ",
"            J x.G U I h.; `.cX;X8 3 7 0 q t V V l V [ [ { | { ' z l 0 0 w t t z z l l l l t 0 0 0 0 ^.yXqXe r.r.a.0.t.S         ",
"            m r.G P.k.a.= ) ;X$Xt 0 0 0 q l q 0 q t t t l z z z z z t t l l l z t l z l l w 0 0 0 0 /.jX{.8 t.a.F.e.F S         ",
"            h G j G S a.S 6 _ ` - = < 3 3 3 - - - = = = - - - - = - ; < ; = = - - 0 3 ; ; ; 3 3 ; 3 ) /.R D n.S c h m c         ",
"            4 S j c c A e.J H D G P P J m r.r.r.r.i.f.f.l.c.l.l.l.c.l.l.h.h.h.f.U U U e.I I P P I I P H J b.L j c g c x         ",
"          o S j L aXN.g c L L L L L e.n.N.f.p.a.x.S.C.C.S.S.Z.Z.S.G.G.Z.Z.C.m.k.x.k.e.p.k.w.L L 0.w.w.L L S j e.fXa.g m &       ",
"          o S h m N.i.2 g g g g g j K w.S c S S z.P.0.t.t.t.e.e.t.t.p.d.a.q.0.A n.C.g g S S j j j c c j g g g K L.e.2 N :       ",
"          o c c 2 g 2 2 g h g g h S S c j c S L F F K q.t.K L 0.0.e.a.p.K K K A c m g g c F c j j j c j g g f g c 4 g c @       ",
"            @ h g : > > 2 2 f g g A g g g h c A S v A K S c A S S L L S j c v c g f f f g S c g g h g g g f 2 > > 2 j :         "
};
